<?xml version="1.0" standalone="no"?><!DOCTYPE svg PUBLIC "-//W3C//DTD SVG 1.1//EN" "http://www.w3.org/Graphics/SVG/1.1/DTD/svg11.dtd"><svg t="1691228904803" class="icon" viewBox="0 0 1024 1024" version="1.1" xmlns="http://www.w3.org/2000/svg" p-id="2697" xmlns:xlink="http://www.w3.org/1999/xlink" width="200" height="200"><path d="M1023.969 512.097c0-282.258-228.985-511.074-511.453-511.074C230.043 1.023 1.053 229.84 1.053 512.097c0 260.738 195.391 475.854 447.837 507.156 14.232 3 31.565 4.747 52.21 4.747 5.796 0 11.385-0.305 16.782-0.857 279.996-2.878 506.087-230.568 506.087-511.046z m-73.133 7.231c-1.471-25.5-4.84-50.46-9.97-74.718 0.456-8.662 0.58-16.868 0.348-24.497 6.343 29.66 9.688 60.432 9.688 91.984a435.95 435.95 0 0 1-0.066 7.231z m-876.715-7.23c0-30.978 3.225-61.201 9.345-90.362 18.932 20.248 63.554 19.77 74.436-10.483 19.471 11.605 45.637 13.718 45.637 36.913 0 76.55 2.726 158.618 72.28 159.886 1.958 0.026 38.788 13.958 56.316 59.416 6.06 15.712 30.033 0 56.322 0 13.124 0 0 22.11 0 69.922 0 47.626 102.68 120.96 102.68 120.96-0.475 31.525 0.82 57.017 3.443 77.383-23.177-0.427-42.71 2.645-58.055 7.868C230.627 907.645 74.12 728.143 74.12 512.097z m546.32 424.686c-2.273-11.127-12.215-17.22-30.356-12.452 14.474-61.64 21.511-96.17 51.728-122.387 43.72-37.899 5.206-80.044-28.063-75.077-26.222 3.959-9.651-32.467-33.056-34.482-23.404-1.958-53.97-48.512-87.653-64.53-17.855-8.48-35.403-31.204-62.94-32.222-24.407-0.946-60.076 20.638-60.076 4 0-53.591-5.427-91.832-6.542-107.104-0.9-12.27-8.02-4.133 24.974-3.34 17.957 0.481 9.186-36.068 26.96-37.495 17.456-1.382 59.052 16.34 69.65 9.277 9.846-6.577 72.371 164.127 72.371 28.217 0-16.126-8.351-44.164 0-59.437 33.03-60.352 63.952-109.539 61.175-116.734-1.575-4.051-33.792-7.396-59.57 1.253-8.699 2.905 2.768 16.53-9.727 19.44-46.814 10.808-88.175-12.622-73.691-34.645 14.831-22.57 68.57-9.846 73.282-55.125 2.71-25.936 4.956-55.974 6.46-78.299 63.004 9.853 56.068-81.767-37.614-91.574 189.526 2.217 350.129 124.616 409.063 294.487-2.98-2.719-6.449-4.371-10.454-4.775-28.324-70.75-97.074-19.548-73.752 42.855-124.96 96.058-92.973 163.053-51.918 201.417 21.603 20.167 42.2 50.497 55.61 72.28-14.596 42.56 53.782 25.518 87.504-46.71-42.895 148.763-162.557 265.011-313.365 303.162z" p-id="2698" fill="#1296db"></path></svg>