<?xml version="1.0" standalone="no"?><!DOCTYPE svg PUBLIC "-//W3C//DTD SVG 1.1//EN" "http://www.w3.org/Graphics/SVG/1.1/DTD/svg11.dtd"><svg t="1691229142180" class="icon" viewBox="0 0 1536 1024" version="1.1" xmlns="http://www.w3.org/2000/svg" p-id="10800" xmlns:xlink="http://www.w3.org/1999/xlink" width="300" height="200"><path d="M64 0h1408a64 64 0 0 1 64 64v896a64 64 0 0 1-64 64H64a64 64 0 0 1-64-64V64a64 64 0 0 1 64-64z m502.784 763.392h144.384L533.76 192H369.408L192 763.392h139.776L364.8 632.064h168.96l33.024 131.328zM390.4 530.816l12.288-48.384c14.592-56.832 29.952-123.648 43.776-183.552h3.072c15.36 58.368 29.952 126.72 45.312 183.552l12.288 48.384H390.4zM928 64L768 960h704V64h-544z m133.696 338.432l-53.76 35.84c-8.064-23.296-30.016-60.032-47.936-86.912l49.728-31.36c18.816 25.088 42.112 59.584 51.968 82.432z m202.496 196.544v18.816h102.592v58.688h-102.592v57.792h-67.2v-57.792h-92.736v-33.6c-69.44 66.304-83.328 81.088-90.944 93.184l-1.344-4.48a208.384 208.384 0 0 0-31.36-43.008c10.752-9.408 23.296-27.776 23.296-52.864V510.72H960v-62.272h43.904L1067.072 448v150.976l16.576-15.232c4.928 13.44 13.44 31.36 20.608 44.352v-10.304h92.736v-18.816h-75.264v-57.792h75.264v-32.704h67.2v32.704h77.504v57.792h-77.504zM1291.264 384H1216c10.752 10.752 22.848 21.056 36.736 30.464 14.336-9.408 27.328-19.712 38.528-30.464z m49.856-64l44.352 23.744c-19.264 38.976-47.488 71.68-81.088 99.008 27.776 11.2 58.688 20.16 91.84 25.984-13.888 13.44-32.256 39.872-41.216 57.344a393.472 393.472 0 0 1-109.76-43.904 551.424 551.424 0 0 1-122.304 47.936A261.44 261.44 0 0 0 1088 472.32a524.032 524.032 0 0 0 101.248-32.256 315.072 315.072 0 0 1-51.072-60.48h-25.536v-56.896h217.728L1341.12 320z" fill="#f4ea2a" p-id="10801"></path></svg>