<?xml version="1.0" standalone="no"?><!DOCTYPE svg PUBLIC "-//W3C//DTD SVG 1.1//EN" "http://www.w3.org/Graphics/SVG/1.1/DTD/svg11.dtd"><svg t="1691229353102" class="icon" viewBox="0 0 1024 1024" version="1.1" xmlns="http://www.w3.org/2000/svg" p-id="12588" xmlns:xlink="http://www.w3.org/1999/xlink" width="200" height="200"><path d="M384 563.2c0 70.6944 57.3056 128 128 128s128-57.3056 128-128h320v332.8a51.2 51.2 0 0 1-51.2 51.2H115.2a51.2 51.2 0 0 1-51.2-51.2V563.2h320zM805.4272 76.8a51.2 51.2 0 0 1 49.4848 38.0544L953.6 486.4H64l116.7744-373.6704A51.2 51.2 0 0 1 229.632 76.8h575.7824zM646.4 185.6h-256l-2.0992 0.064a32 32 0 0 0 0 63.872l2.0992 0.064h256l2.0992-0.064a32 32 0 0 0 0-63.872L646.4 185.6z" fill="#6B57FE" p-id="12589"></path><path d="M742.4 313.6a32 32 0 0 1 2.0992 63.936L742.4 377.6H294.4a32 32 0 0 1-2.0992-63.936L294.4 313.6h448z" fill="#FFBA00" p-id="12590"></path></svg>